:SAMPLES-PER-SECOND 24
:FULLY-SPECIFIED
:DEGREES
144
root  -1.20028 40.0615 20.9466 6.60083 39.1731 -2.95166
RightUpLeg  -12.2464 1.83008 -6.77427
RightLeg  17.4004 -0.699882 -0.634416
RightFoot  -7.00377 -0.347986 7.99402
RightToes  -2.08645e-008 3.77894e-005 6.81332e-007
Spine  -3.54098 -3.17868 -1.61219
Spine1  7.41176 -4.21546 4.42133
HEad  -28.9796 -9.34449 9.81942
LeftShoulder1  6.95466 -12.9448 -36.2356
LeftArm  10.144 27.9977 -19.7281
LeftForeArm  163.425 -64.0835 -159.083
LeftHand  -0.303237 -2.86759 4.49522
RightShoulder  3.80848 6.46795 32.3094
RightArm  10.9669 -33.3809 26.6944
RightForeArm  152.777 73.0823 145.629
RightHand  -0.130673 8.83131 -1.45299
LeftUpLeg  -2.96028 -1.21525 8.24676
LeftLeg  18.6172 -0.813302 0.0240454
LeftFoot  -11.5251 0.0514927 -17.945
LeftToes  1.24767e-006 1.47042e-008 1.32732e-009
145
root  -1.45977 39.2142 20.7519 6.32617 34.1745 -3.26624
RightUpLeg  -15.9423 5.07925 -6.69585
RightLeg  22.0659 0.0842234 -0.163323
RightFoot  -11.7737 -0.0576823 6.55583
RightToes  -2.08645e-008 3.77894e-005 6.81332e-007
Spine  -3.86562 -1.74653 0.416371
Spine1  7.83294 -2.16792 1.03195
HEad  -28.4391 -8.90356 10.0916
LeftShoulder1  7.22939 -13.1147 -37.4153
LeftArm  8.79935 23.2517 -19.0415
LeftForeArm  163.724 -65.9201 -157.396
LeftHand  -0.312154 -2.41486 4.85025
RightShoulder  3.7667 6.39126 32.182
RightArm  10.156 -27.539 25.2872
RightForeArm  143.165 76.3575 135.062
RightHand  -0.237348 9.01711 -2.29958
LeftUpLeg  -1.52374 0.686386 6.9055
LeftLeg  17.964 3.50835 1.69861
LeftFoot  -17.8775 -0.700608 -14.2123
LeftToes  1.24767e-006 1.47042e-008 1.32732e-009
146
root  -1.77699 38.5125 20.4032 5.95654 30.9937 -3.03461
RightUpLeg  -21.3836 6.22323 -7.04009
RightLeg  31.2219 1.47745 0.71956
RightFoot  -14.4304 0.0510444 5.40598
RightToes  -2.08645e-008 3.77894e-005 6.81332e-007
Spine  -2.17882 -1.77052 -2.25365
Spine1  8.2499 -2.72339 3.10869
HEad  -29.8115 -6.72875 10.7274
LeftShoulder1  8.12358 -13.8491 -40.5666
LeftArm  3.91311 19.2039 -19.399
LeftForeArm  162.861 -68.4644 -154.471
LeftHand  -0.346066 -1.70935 5.83936
RightShoulder  3.86788 6.51497 32.7221
RightArm  7.88391 -20.7602 25.7228
RightForeArm  129.138 78.8987 119.806
RightHand  -0.480337 8.41257 -4.41454
LeftUpLeg  -0.9017 1.37564 5.64012
LeftLeg  18.8165 8.41261 3.69923
LeftFoot  -22.9928 -1.15779 -12.6317
LeftToes  1.24767e-006 1.47042e-008 1.32732e-009
147
root  -2.1566 38.2729 20.0251 5.4093 31.4967 -1.58673
RightUpLeg  -26.3502 3.61674 -8.42916
RightLeg  41.36 3.61016 3.11925
RightFoot  -11.9327 -0.0436448 7.24763
RightToes  -2.08645e-008 3.77894e-005 6.81332e-007
Spine  1.683 -3.00114 -8.98678
Spine1  8.30014 -5.71029 10.0083
HEad  -31.8267 -4.21843 11.8637
LeftShoulder1  8.74319 -14.3831 -42.5085
LeftArm  0.108069 15.1972 -21.4102
LeftForeArm  157.691 -71.1943 -149.897
LeftHand  -0.448472 -1.2134 8.03557
RightShoulder  3.98353 6.63115 33.4198
RightArm  4.72546 -18.1788 28.6891
RightForeArm  126.344 79.1244 117.457
RightHand  -0.508312 7.99774 -4.76953
LeftUpLeg  -0.767037 -1.60579 3.99477
LeftLeg  19.9855 10.5703 4.58358
LeftFoot  -24.3077 -1.27442 -12.4546
LeftToes  1.24767e-006 1.47042e-008 1.32732e-009
148
root  -2.45397 38.2702 19.8905 5.21643 32.2246 -0.629822
RightUpLeg  -30.7963 -0.352563 -9.08471
RightLeg  48.0973 4.72943 5.25988
RightFoot  -7.28141 -0.445733 11.3531
RightToes  -2.08645e-008 3.77894e-005 6.81332e-007
Spine  4.8909 -3.76344 -13.0679
Spine1  7.11069 -7.75124 14.4916
HEad  -32.3342 -3.25351 12.5024
LeftShoulder1  8.70997 -14.3852 -42.3301
LeftArm  -0.394694 11.7466 -24.7433
LeftForeArm  151.651 -73.2184 -145.225
LeftHand  -0.529597 -1.1857 9.50265
RightShoulder  4.12335 6.72239 34.4289
RightArm  2.58436 -21.0298 31.6963
RightForeArm  135.118 77.7704 127.644
RightHand  -0.474507 8.05608 -4.4611
LeftUpLeg  -0.915028 -3.29307 3.23362
LeftLeg  20.5347 11.5652 5.06859
LeftFoot  -23.3828 -1.08719 -11.6039
LeftToes  1.24767e-006 1.47042e-008 1.32732e-009
149
root  -2.56485 38.3738 20.1188 5.32239 30.7084 -0.969543
RightUpLeg  -33.2922 -3.05495 -7.91203
RightLeg  47.0833 3.28943 3.45933
RightFoot  -7.38346 -0.467127 11.9612
RightToes  -2.08645e-008 3.77894e-005 6.81332e-007
Spine  5.59609 -3.9714 -13.1761
Spine1  5.50065 -7.97335 15.2025
HEad  -30.9666 -3.30305 12.4058
LeftShoulder1  8.48975 -14.2097 -41.6219
LeftArm  0.795887 10.0184 -27.7841
LeftForeArm  151.831 -73.2984 -145.066
LeftHand  -0.513827 -1.46577 8.86473
RightShoulder  4.27149 6.84295 35.3777
RightArm  3.13841 -25.387 32.806
RightForeArm  142.134 76.5549 134.294
RightHand  -0.340459 8.72203 -3.18494
LeftUpLeg  0.15979 -1.95651 3.65677
LeftLeg  18.6289 12.0782 5.04311
LeftFoot  -22.7741 -1.04941 -11.8126
LeftToes  1.24767e-006 1.47042e-008 1.32732e-009
150
root  -2.57803 38.4793 20.5976 5.85364 28.5319 -1.57172
RightUpLeg  -33.9786 -4.73458 -6.4533
RightLeg  39.3239 -0.605552 -0.778184
RightFoot  -9.64981 -0.197795 8.54494
RightToes  -2.08645e-008 3.77894e-005 6.81332e-007
Spine  4.94735 -4.32205 -12.4852
Spine1  4.23939 -8.0841 15.7519
HEad  -28.6835 -3.13118 12.188
LeftShoulder1  8.19283 -13.9384 -40.724
LeftArm  2.64572 9.88837 -30.1481
LeftForeArm  156.543 -71.986 -148.363
LeftHand  -0.446088 -2.10322 7.11261
RightShoulder  4.31852 6.90629 35.5749
RightArm  5.9296 -28.3219 32.1225
RightForeArm  144.751 76.4482 135.232
RightHand  -0.086512 9.50641 -1.07361
LeftUpLeg  1.96354 0.343102 4.25801
LeftLeg  15.1684 12.1887 4.86146
LeftFoot  -22.0704 -1.04733 -12.52
LeftToes  1.24767e-006 1.47042e-008 1.32732e-009
151
root  -2.62765 38.4128 21.274 7.02185 27.0367 -1.57745
RightUpLeg  -34.4784 -6.06777 -6.03202
RightLeg  29.6262 -5.40406 -3.54519
RightFoot  -8.75052 -0.173917 5.05716
RightToes  -2.08645e-008 3.77894e-005 6.81332e-007
Spine  4.00669 -4.89082 -13.1104
Spine1  2.97382 -8.59585 17.559
HEad  -26.7937 -2.9998 12.0701
LeftShoulder1  7.86648 -13.6662 -39.632
LeftArm  5.20276 9.28179 -32.142
LeftForeArm  159.383 -70.9659 -150.508
LeftHand  -0.409468 -2.73829 6.07354
RightShoulder  4.25467 6.86841 35.1182
RightArm  8.69498 -29.57 30.1611
RightForeArm  144.912 76.4858 135.139
RightHand  0.0566309 10.1829 0.00902388
LeftUpLeg  2.85794 1.89018 4.71399
LeftLeg  13.1061 12.5603 4.65386
LeftFoot  -21.2777 -0.958109 -12.4445
LeftToes  1.24767e-006 1.47042e-008 1.32732e-009
152
root  -2.713 38.1845 22.1312 8.30359 25.5072 -0.979492
RightUpLeg  -34.8907 -7.4611 -6.28117
RightLeg  20.4775 -8.45861 -3.71227
RightFoot  -6.9981 -0.166069 3.06901
RightToes  -2.08645e-008 3.77894e-005 6.81332e-007
Spine  2.70633 -5.30472 -14.4111
Spine1  2.4512 -8.97438 19.3823
HEad  -26.2186 -3.21828 11.84
LeftShoulder1  7.71527 -13.5805 -39.0082
LeftArm  7.86337 6.26626 -33.4844
LeftForeArm  159.612 -70.7691 -150.849
LeftHand  -0.417025 -2.92833 6.05305
RightShoulder  4.16179 6.79229 34.5275
RightArm  10.1068 -29.2321 27.9307
RightForeArm  144.953 76.2166 136.05
RightHand  0.064209 10.4904 0.0538786
LeftUpLeg  3.76762 3.12035 4.89805
LeftLeg  12.0794 12.4574 4.09872
LeftFoot  -21.8306 -1.16877 -14.076
LeftToes  1.24767e-006 1.47042e-008 1.32732e-009
153
root  -2.81313 37.8962 23.1475 9.11243 23.1691 0.110718
RightUpLeg  -35.0476 -8.92908 -6.43035
RightLeg  13.7408 -10.6924 -2.93205
RightFoot  -5.13729 -0.118722 1.45823
RightToes  -2.08645e-008 3.77894e-005 6.81332e-007
Spine  1.27044 -5.54403 -15.2854
Spine1  3.02999 -9.17577 20.0453
HEad  -26.2116 -3.29235 11.1849
LeftShoulder1  7.67416 -13.5719 -38.7992
LeftArm  10.1364 1.63851 -34.0921
LeftForeArm  159.032 -70.9448 -150.491
LeftHand  -0.417759 -2.99155 6.02241
RightShoulder  4.06592 6.70958 33.9217
RightArm  10.6712 -27.9197 26.9723
RightForeArm  145.747 75.9757 136.996
RightHand  -0.0309208 10.4371 -0.640707
LeftUpLeg  6.13584 3.69986 4.40439
LeftLeg  10.4147 14.3456 3.57416
LeftFoot  -21.8848 -1.37868 -16.2728
LeftToes  1.24767e-006 1.47042e-008 1.32732e-009
154
root  -2.91876 37.6808 24.3251 9.21887 19.9232 0.636597
RightUpLeg  -36.087 -9.54118 -5.21318
RightLeg  13.1344 -13.0865 -3.12697
RightFoot  -0.0327296 0.197652 -1.93874
RightToes  -2.08645e-008 3.77894e-005 6.81332e-007
Spine  0.0813005 -5.72299 -14.1281
Spine1  3.60223 -9.29771 19.4717
HEad  -25.3998 -2.7858 9.52795
LeftShoulder1  7.67335 -13.5728 -38.7927
LeftArm  11.992 -2.04934 -34.291
LeftForeArm  159.199 -70.9722 -150.473
LeftHand  -0.388845 -3.12386 5.54314
RightShoulder  3.96159 6.60302 33.3124
RightArm  11.3111 -26.634 27.1434
RightForeArm  147.563 75.6035 138.502
RightHand  0.0304832 10.1622 -0.184797
LeftUpLeg  9.5933 4.1193 4.29312
LeftLeg  8.27025 17.1313 2.88561
LeftFoot  -20.0876 -1.20639 -17.2333
LeftToes  1.24767e-006 1.47042e-008 1.32732e-009
155
root  -3.06811 37.5376 25.7852 8.58557 15.9865 -0.071106
RightUpLeg  -37.8201 -9.37365 -1.90921
RightLeg  17.9605 -11.2802 -4.25515
RightFoot  5.5794 0.884713 -5.68234
RightToes  -2.08645e-008 3.77894e-005 6.81332e-007
Spine  -1.31677 -5.98646 -10.805
Spine1  4.22201 -9.5347 18.3433
HEad  -24.0732 -1.24747 6.52712
LeftShoulder1  7.75108 -13.6444 -39.046
LeftArm  12.9205 -3.33077 -34.2398
LeftForeArm  161.1 -70.5623 -151.374
LeftHand  -0.371238 -3.06076 5.33812
RightShoulder  3.89067 6.5123 32.9606
RightArm  12.3613 -25.2431 27.3676
RightForeArm  149.401 75.2229 139.953
RightHand  -0.0607579 10.1745 -0.862805
LeftUpLeg  12.4614 5.93753 6.10786
LeftLeg  9.64656 15.9192 2.43387
LeftFoot  -19.6811 -1.53678 -22.4244
LeftToes  1.24767e-006 1.47042e-008 1.32732e-009
